<svg style="display: none;" xmlns="http://www.w3.org/2000/svg">

    <!-- Search Sprite -->
    <symbol id="search" viewBox="0 0 16 16">
        <g>
           <path d="M11.4601 10.3185L15.7639 14.6223C15.9151 14.7737 16.0001 14.979 16 15.193C15.9999 15.407 15.9148 15.6122 15.7635 15.7635C15.6121 15.9147 15.4068 15.9997 15.1928 15.9996C14.9788 15.9995 14.7736 15.9144 14.6223 15.7631L10.3185 11.4593C9.03194 12.4558 7.41407 12.9247 5.79403 12.7707C4.17398 12.6167 2.67346 11.8513 1.59771 10.6302C0.521957 9.40911 -0.0482098 7.82408 0.00319691 6.19754C0.0546036 4.57101 0.723722 3.02514 1.87443 1.87443C3.02514 0.723722 4.57101 0.0546036 6.19754 0.00319691C7.82408 -0.0482098 9.40911 0.521957 10.6302 1.59771C11.8513 2.67346 12.6167 4.17398 12.7707 5.79403C12.9247 7.41407 12.4558 9.03194 11.4593 10.3185H11.4601ZM6.4003 11.1993C7.67328 11.1993 8.89412 10.6936 9.79425 9.79345C10.6944 8.89332 11.2001 7.67248 11.2001 6.3995C11.2001 5.12652 10.6944 3.90568 9.79425 3.00554C8.89412 2.10541 7.67328 1.59972 6.4003 1.59972C5.12732 1.59972 3.90648 2.10541 3.00634 3.00554C2.10621 3.90568 1.60052 5.12652 1.60052 6.3995C1.60052 7.67248 2.10621 8.89332 3.00634 9.79345C3.90648 10.6936 5.12732 11.1993 6.4003 11.1993Z"/>
        </g>
    </symbol>



    <!-- Cart Sprite -->
    <symbol id="cart" viewBox="0 0 16 15">
        <g>
           <path d="M5.33229 14.9336C5.92139 14.9336 6.39896 14.4561 6.39896 13.867C6.39896 13.2779 5.92139 12.8003 5.33229 12.8003C4.74319 12.8003 4.26562 13.2779 4.26562 13.867C4.26562 14.4561 4.74319 14.9336 5.33229 14.9336Z"/>
            <path d="M12.801 14.9336C13.3901 14.9336 13.8677 14.4561 13.8677 13.867C13.8677 13.2779 13.3901 12.8003 12.801 12.8003C12.2119 12.8003 11.7344 13.2779 11.7344 13.867C11.7344 14.4561 12.2119 14.9336 12.801 14.9336Z"/>
            <path d="M14.9333 2.66678H3.104L2.66667 0.426775C2.64173 0.304495 2.57471 0.19483 2.47726 0.11687C2.37981 0.0389102 2.25811 -0.00240773 2.13333 0.000108501H0V1.06678H1.696L3.73333 11.3068C3.75827 11.4291 3.82529 11.5387 3.92274 11.6167C4.02019 11.6946 4.1419 11.736 4.26667 11.7334H13.8667V10.6668H4.704L4.26667 8.53344H13.8667C13.99 8.53646 14.1105 8.49665 14.2077 8.4208C14.305 8.34496 14.3729 8.23775 14.4 8.11744L15.4667 3.31744C15.4845 3.23831 15.4841 3.15614 15.4655 3.07719C15.4468 2.99824 15.4103 2.9246 15.3589 2.86185C15.3075 2.79911 15.2424 2.74893 15.1687 2.71512C15.0949 2.68132 15.0144 2.66478 14.9333 2.66678ZM13.44 7.46678H4.064L3.31733 3.73344H14.2667L13.44 7.46678Z"/>
        </g>
    </symbol>



    <!-- Wedo Sprites -->
    <symbol id="wedo-1" viewBox="0 0 48 41">
        <g>
           <path d="M42.5886 8.52554H37.519V3.45592C37.519 2.55955 37.1629 1.6999 36.5291 1.06608C35.8953 0.432251 35.0356 0.0761719 34.1393 0.0761719H13.8608C12.9644 0.0761719 12.1048 0.432251 11.4709 1.06608C10.8371 1.6999 10.481 2.55955 10.481 3.45592V8.52554H5.41142C4.06687 8.52554 2.77739 9.05966 1.82665 10.0104C0.875916 10.9611 0.341797 12.2506 0.341797 13.5952V37.2534C0.341797 38.1497 0.697876 39.0094 1.3317 39.6432C1.96553 40.2771 2.82518 40.6331 3.72154 40.6331H44.2785C45.1749 40.6331 46.0345 40.2771 46.6683 39.6432C47.3022 39.0094 47.6582 38.1497 47.6582 37.2534V13.5952C47.6582 12.2506 47.1241 10.9611 46.1734 10.0104C45.2227 9.05966 43.9332 8.52554 42.5886 8.52554ZM13.8608 3.45592H34.1393V8.52554H13.8608V3.45592ZM44.2785 37.2534H3.72154V22.0445H17.2405V30.4939H30.7595V22.0445H44.2785V37.2534ZM20.6203 22.0445H27.3798V27.1141H20.6203V22.0445ZM3.72154 18.6648V13.5952C3.72154 13.147 3.89958 12.7172 4.2165 12.4002C4.53341 12.0833 4.96323 11.9053 5.41142 11.9053H42.5886C43.0368 11.9053 43.4666 12.0833 43.7836 12.4002C44.1005 12.7172 44.2785 13.147 44.2785 13.5952V18.6648H3.72154Z"/>
        </g>
    </symbol>

    <symbol id="wedo-2" viewBox="0 0 48 48">
        <g>
            <path opacity="0.15" d="M43.6503 13.75H4.35031C4.33231 13.75 4.32031 13.7619 4.32031 13.7796V19.1849C4.32031 22.7291 7.26031 25.6037 10.8783 25.6037C13.3203 25.6037 15.4503 24.2998 16.5843 22.3617C16.7583 22.0594 17.0883 21.8698 17.4423 21.8698C17.7963 21.8698 18.1203 22.0594 18.3003 22.3617C19.4283 24.2998 21.5583 25.6037 24.0003 25.6037C26.4483 25.6037 28.5843 24.2938 29.7063 22.3498C29.8803 22.0535 30.1983 21.8698 30.5403 21.8698H30.5763C30.9243 21.8698 31.2363 22.0535 31.4103 22.3498C32.5383 24.2938 34.6743 25.6037 37.1223 25.6037C40.7403 25.6037 43.6803 22.7291 43.6803 19.1849V13.7796C43.6803 13.7619 43.6683 13.75 43.6503 13.75Z"/>
            <path d="M46.2 9.48885V1.89659C46.2 0.847537 45.342 0 44.28 0H3.72003C2.65803 0 1.80004 0.847537 1.80004 1.89659V9.48885C0.798037 9.54812 3.71756e-05 10.372 3.71756e-05 11.3795V19.1851C-0.00380525 20.6197 0.290253 22.0398 0.864037 23.3576C1.12204 23.9622 1.44004 24.5311 1.80004 25.0705V45.518C1.80004 46.5612 2.65803 47.4146 3.72003 47.4146H44.28C45.342 47.4146 46.2 46.5671 46.2 45.518V25.0705C46.5657 24.5298 46.879 23.9563 47.136 23.3576C47.706 22.036 48 20.6313 48 19.1851V11.3795C48 10.372 47.202 9.54812 46.2 9.48885ZM6.12003 4.26732H41.88V9.48293H6.12003V4.26732ZM27.84 43.1532H20.16V36.9834H27.84V43.1532ZM41.904 43.1532H31.68V35.0868C31.68 34.0378 30.822 33.1902 29.76 33.1902H18.24C17.178 33.1902 16.32 34.0378 16.32 35.0868V43.1532H6.12003V28.7985C6.29403 28.8814 6.47403 28.9644 6.66003 29.0355C7.99803 29.5927 9.42003 29.8712 10.884 29.8712C12.348 29.8712 13.764 29.5927 15.108 29.0355C15.936 28.6918 16.716 28.2532 17.43 27.7257C17.442 27.7198 17.454 27.7198 17.466 27.7257C18.1822 28.2554 18.9622 28.6954 19.788 29.0355C21.126 29.5927 22.548 29.8712 24.012 29.8712C25.476 29.8712 26.892 29.5927 28.236 29.0355C29.064 28.6918 29.844 28.2532 30.558 27.7257C30.57 27.7198 30.582 27.7198 30.594 27.7257C31.3102 28.2554 32.0902 28.6954 32.916 29.0355C34.254 29.5927 35.676 29.8712 37.14 29.8712C38.604 29.8712 40.02 29.5927 41.364 29.0355C41.544 28.9585 41.724 28.8814 41.904 28.7985V43.1532ZM43.68 19.1851C43.68 22.7294 40.74 25.6039 37.122 25.6039C34.674 25.6039 32.538 24.2941 31.41 22.3501C31.236 22.0537 30.924 21.87 30.576 21.87H30.54C30.198 21.87 29.88 22.0537 29.706 22.3501C29.1304 23.3417 28.2992 24.1652 27.297 24.7367C26.2948 25.3082 25.1572 25.6074 24 25.6039C21.558 25.6039 19.428 24.3 18.3 22.3619C18.12 22.0597 17.796 21.87 17.442 21.87C17.088 21.87 16.758 22.0597 16.584 22.3619C16.005 23.3498 15.1728 24.1695 14.1711 24.7387C13.1694 25.3078 12.0336 25.6062 10.878 25.6039C7.26003 25.6039 4.32003 22.7294 4.32003 19.1851V13.7799C4.32003 13.7621 4.33203 13.7502 4.35003 13.7502H43.65C43.668 13.7502 43.68 13.7621 43.68 13.7799V19.1851Z"/>
        </g>
    </symbol>

    <symbol id="wedo-3" viewBox="0 0 48 38">
        <g>
            <path d="M29.1426 8.62402H41.1404V12.0693H29.1426V8.62402Z"/>
            <path d="M29.1426 17.2373H41.1404V20.6826H29.1426V17.2373Z"/>
            <path d="M29.1426 25.8506H41.1404V29.2959H29.1426V25.8506Z"/>
            <path d="M44.5674 0.0112305H3.43187C2.52299 0.0121426 1.65161 0.375424 1.00893 1.02135C0.366264 1.66727 0.00481376 2.54307 0.00390625 3.45655V34.4644C0.00481376 35.3779 0.366264 36.2537 1.00893 36.8996C1.65161 37.5455 2.52299 37.9088 3.43187 37.9097H44.5674C45.4761 37.9084 46.3472 37.5449 46.9898 36.8991C47.6324 36.2533 47.994 35.3777 47.9953 34.4644V3.45655C47.9944 2.54307 47.633 1.66727 46.9903 1.02135C46.3477 0.375424 45.4763 0.0121426 44.5674 0.0112305ZM3.43187 3.45655H22.2856V34.4644H3.43187V3.45655ZM25.7136 34.4644V3.45655H44.5674L44.5708 34.4644H25.7136Z"/>
        </g>
    </symbol>



    <!-- Clients Sprite -->
    <symbol id="clients-1" viewBox="0 0 103 35">
        <g>
            <path d="M23.2553 32.4249L29.4193 32.5526C27.2949 31.8183 25.2349 30.9244 23.2553 29.8709V32.4249ZM32.5414 31.5789V32.4249L29.4193 32.5526C35.2935 34.5479 40.6688 34.8193 44.66 33.7019C41.4574 33.7338 37.2891 33.2869 32.5414 31.5789ZM98.3488 13.1901C100.908 13.1901 103 11.131 103 8.577C103 6.02301 100.924 4.6662 98.3488 4.6662C95.7899 4.6662 93.6977 6.03897 93.6977 8.577C93.6977 11.115 95.7738 13.1901 98.3488 13.1901ZM93.6816 32.4249H103V14.7864H93.6816V32.4249ZM81.8205 32.4249H91.1388V1.25024L81.8205 5.60799V32.4249ZM76.8314 13.3657C73.9024 10.4606 68.7202 10.6362 68.7202 10.6362C68.7202 10.6362 63.5219 10.4606 60.6089 13.3657C57.6799 16.2709 57.9052 18.777 57.9052 21.762C57.9052 24.747 57.6799 27.2371 60.6089 30.1423C63.538 33.0474 68.7202 32.8718 68.7202 32.8718C68.7202 32.8718 73.9185 33.0474 76.8314 30.1423C79.7605 27.2371 79.5352 24.747 79.5352 21.762C79.5191 18.761 79.7444 16.2549 76.8314 13.3657ZM70.4261 24.8427C70.4261 25.4174 70.1364 26.838 68.7041 26.838C67.2718 26.838 66.9821 25.4174 66.9821 24.8427V18.3939C66.9821 17.0052 68.1569 16.654 68.7041 16.654C69.2513 16.654 70.4261 16.9892 70.4261 18.3939V24.8427ZM53.3346 13.3657C50.4055 10.4606 45.2233 10.6362 45.2233 10.6362C45.2233 10.6362 40.0411 10.4606 37.1121 13.3657C36.8063 13.669 36.5166 13.9883 36.2591 14.3235C30.1113 9.5986 24.5911 6.90094 19.8274 4.57043V1.2662L16.2063 2.95822C7.45129 -0.569481 1.88285 0.0530559 0.547068 2.97418C0.547068 2.97418 -3.46028 8.20986 10.493 20.6606V32.4249H19.8113V27.8596C18.7652 27.1892 17.7191 26.4709 16.6891 25.6887C14.3072 23.9009 12.2794 22.2409 10.5091 20.6765V15.7282C12.6174 18.0747 15.4177 20.7404 19.1032 23.7573L19.8274 24.3319V19.5751C19.8274 18.4737 20.101 16.67 21.5655 16.67C23.03 16.67 23.2714 17.7714 23.2714 19.0643V26.838C26.1683 28.7855 29.2744 30.3657 32.5575 31.5629V16.5742C32.5575 13.5892 30.401 10.6042 26.0235 10.6042C23.4807 10.5883 21.1149 11.9132 19.8274 14.1V5.4324C26.5707 8.76855 33.33 12.8549 35.905 14.7385C34.2635 17.069 34.4083 19.2239 34.4083 21.7141C34.4083 24.6991 34.183 27.1892 37.1121 30.0944C40.0411 32.9995 45.2233 32.824 45.2233 32.824C45.2233 32.824 50.4216 32.9995 53.3346 30.0944C56.2636 27.1892 56.0222 24.6991 56.0222 21.7141C56.0222 18.761 56.2636 16.2549 53.3346 13.3657ZM10.493 5.60799V15.7122C2.65535 7.01268 4.23254 3.58076 4.82801 3.08592C7.00066 1.2662 10.8632 1.80892 15.1924 3.42113L10.493 5.60799ZM46.9453 24.8427C46.9453 25.4174 46.6557 26.838 45.2233 26.838C43.791 26.838 43.5013 25.4174 43.5013 24.8427V18.3939C43.5013 17.0052 44.6761 16.654 45.2233 16.654C45.7705 16.654 46.9453 16.9892 46.9453 18.3939V24.8427Z"/>
        </g>
    </symbol>

    <symbol id="clients-2" viewBox="0 0 84 59">
        <g>
            <path d="M0.5 0.995234H13.1121V35.0099C13.1121 40.4046 15.5437 43.6154 17.5215 44.9519C15.4627 46.761 9.22148 48.3582 4.52031 44.4955C1.76445 42.2137 0.5 38.4162 0.5 34.8795V0.995234ZM79.2689 29.2729V25.6872H83.1272V13.1701H78.8961C77.2588 5.62396 70.5961 0.017334 62.6365 0.017334C53.4611 0.017334 45.9879 7.51457 45.9879 16.7557V45.9624C48.5816 46.3372 51.7266 45.9135 54.3689 43.6806C57.141 41.3988 58.3893 37.6176 58.3893 34.0646V32.9726H64.6791V20.4555H58.3893V16.6579C58.3893 11.0187 66.8514 11.0187 66.8514 16.6579V29.224C66.8514 38.4488 74.3084 45.9624 83.5 45.9624V33.4941C81.1494 33.4941 79.2689 31.5872 79.2689 29.2729ZM31.5602 13.1375V31.5546C31.5602 34.0646 27.702 34.0646 27.702 31.5546V13.1375H15.252V34.7654C15.252 38.6444 16.5488 43.5665 22.5469 45.18C28.5449 46.7773 31.9816 43.4524 31.9816 43.4524C31.6412 45.6364 29.6311 47.2499 26.324 47.5759C23.8113 47.8367 20.6178 46.9892 19.0291 46.3046V57.7624C23.098 58.9847 27.3777 59.3596 31.6088 58.5284C39.2441 57.0452 44.0588 50.64 44.0588 42.0996V13.056H31.5602V13.1375Z"/>
        </g>
    </symbol>

    <symbol id="clients-3" viewBox="0 0 102 75">
        <g>
            <path d="M102 0.145752C89.1225 8.82826 87.7519 15.1296 86.6362 17.0572C85.5684 19.0334 84.7716 26.825 82.9228 30.5993C81.0581 34.4222 74.2847 37.4352 72.3881 38.6987C70.5234 39.9622 67.8778 44.8704 65.7103 49.0982C48.4819 48.3855 39.0309 55.3833 24.4003 64.2602C29.0859 62.6889 31.3012 61.555 31.3012 61.555C46.3144 55.7235 53.5022 50.4913 76.1016 53.5853C76.2769 53.5853 76.4044 53.6825 76.5478 53.7149C77.1694 54.0712 77.3925 54.8326 77.0419 55.4643L68.4516 70.9827C68.0531 71.744 67.2084 72.149 66.3637 71.9708C46.155 68.1155 30.2016 74.7732 15.5391 74.9838C3.84094 75.1619 0 69.5572 0 69.298C0 69.1198 0.095625 69.0226 0.270938 69.0226C0.270938 69.0226 6.375 69.0226 16.7025 66.5442C28.4325 43.8175 38.8875 35.8639 50.2669 35.8639C50.2669 35.8639 61.6941 35.8639 64.7062 45.8909C68.34 39.46 69.2166 37.9211 69.2166 37.9211C70.0612 36.3985 74.7947 25.4157 82.9866 15.0162C91.1944 4.64899 97.3941 2.0734 102 0.145752Z"/>
        </g>
    </symbol>

    <symbol id="clients-4" viewBox="0 0 103 43">
        <g>
            <path d="M26.5562 3.79318L19.5876 5.25682L19.5554 27.9114C19.5554 32.0955 22.742 34.8 26.9746 34.8C29.3243 34.8 31.0463 34.3705 31.9959 33.8614V28.4841C31.0785 28.85 26.5723 30.1546 26.5723 25.9864V15.9318H31.9959V9.91818H26.5723L26.5562 3.79318ZM40.8957 12.0023L40.4612 9.91818H34.2812V34.2909H41.4107V17.8886C43.1005 15.6932 45.9491 16.1227 46.8665 16.4091V9.91818C45.9009 9.58409 42.5695 8.96364 40.8957 12.0023ZM55.7502 0.5L48.5724 2.01136V7.77045L55.7502 6.25909V0.5ZM7.22758 17.0932C7.22758 15.9955 8.16102 15.5659 9.65774 15.55C11.8304 15.55 14.5985 16.2023 16.7712 17.3636V10.7136C14.4054 9.79091 12.0396 9.425 9.67383 9.425C3.88008 9.425 0.0175781 12.4159 0.0175781 17.4114C0.0175781 25.2386 10.8809 23.9659 10.8809 27.3386C10.8809 28.6432 9.7382 29.0727 8.14492 29.0727C5.77914 29.0727 2.72133 28.1023 0.323359 26.8136V33.1773C2.97883 34.3068 5.66649 34.7841 8.12883 34.7841C14.0674 34.7841 18.1552 32.2705 18.1552 27.1796C18.1552 18.7636 7.22758 20.275 7.22758 17.0932ZM103.002 22.3909C103.002 15.1523 99.4609 9.44091 92.6693 9.44091C85.8777 9.44091 81.7416 15.1523 81.7416 22.3432C81.7416 30.8545 86.6181 34.7841 93.5706 34.7841C96.9824 34.7841 99.5413 34.0205 101.489 32.9545V27.6409C99.5413 28.6114 97.3043 29.2 94.4718 29.2C91.6876 29.2 89.2413 28.2295 88.9195 24.9205H102.905C102.937 24.5545 103.002 23.075 103.002 22.3909ZM88.8551 19.7182C88.8551 16.5364 90.8346 15.2 92.621 15.2C94.3753 15.2 96.2421 16.5364 96.2421 19.7182H88.8551ZM70.6852 9.44091C67.8849 9.44091 66.0824 10.7455 65.0846 11.6523L64.7145 9.90227H58.4218V42.4841L65.5674 40.9886L65.5835 33.0023C66.6135 33.75 68.1424 34.7841 70.637 34.7841C75.7548 34.7841 80.422 31.0932 80.422 22.1205C80.4381 13.9114 75.7065 9.44091 70.6852 9.44091ZM68.9793 28.9296C67.3056 28.9296 66.3077 28.325 65.6157 27.5932L65.5674 17.0932C66.3077 16.2818 67.3377 15.6932 68.9793 15.6932C71.5865 15.6932 73.389 18.5886 73.389 22.2795C73.4051 26.0818 71.6348 28.9296 68.9793 28.9296ZM48.5885 34.2909H55.7663V9.91818H48.5885V34.2909Z"/>
        </g>
    </symbol>

    <symbol id="clients-5" viewBox="0 0 105 63">
        <g>
            <path d="M29.8877 22.9887C29.7711 26.6268 31.6049 28.2378 31.6502 29.261C31.6286 29.4692 31.5571 29.6693 31.4415 29.8445C31.326 30.0197 31.1698 30.165 30.986 30.2681L28.9125 31.7072C28.6442 31.8938 28.3279 32.0007 28.0005 32.0156C27.9308 32.0124 26.6738 32.3096 24.6829 27.9021C23.4682 29.4055 21.9227 30.6133 20.1648 31.4332C18.4068 32.2531 16.4829 32.6633 14.5404 32.6324C11.9032 32.7754 4.75602 31.1483 5.12374 23.6039C4.86618 17.4553 10.6413 13.6357 16.614 13.9585C17.7641 13.9618 20.113 14.018 24.2261 14.9656V12.4567C24.6618 8.20668 21.8447 4.90911 16.9671 5.40383C16.5783 5.40543 13.8244 5.32352 9.54132 7.02771C8.34904 7.57061 8.19677 7.48067 7.79988 7.48067C6.59951 7.48067 7.09359 4.03051 7.32362 3.59362C8.16761 2.56564 13.1327 0.646211 18.0055 0.673517C21.2636 0.387814 24.5042 1.38483 27.0269 3.44906C28.0524 4.5864 28.8347 5.91801 29.3267 7.3635C29.8187 8.80898 30.0101 10.3383 29.8894 11.8592L29.8877 22.9887ZM15.8882 28.1912C21.1417 28.1157 23.3659 24.9836 23.8729 23.2971C24.2714 21.6828 24.205 20.6613 24.205 18.8961C22.6385 18.5234 20.3836 18.117 17.7965 18.1138C15.3423 17.9307 10.8599 19.0181 11.0349 23.2955C10.834 25.9923 12.8363 28.339 15.8882 28.1912ZM43.5762 31.8936C42.3029 32.0092 41.71 31.1129 41.5221 30.2279L33.4548 3.78155C33.2977 3.33502 33.194 2.87403 33.1438 2.40341C33.114 2.20939 33.1632 2.01158 33.2804 1.85346C33.3977 1.69535 33.5734 1.58985 33.7691 1.56015C33.808 1.55372 33.4241 1.56015 37.3735 1.56015C38.7958 1.4188 39.2591 2.5287 39.4065 3.2258L45.1929 25.8462L50.5646 3.2258C50.6505 2.70859 51.0409 1.44771 52.6381 1.58103H55.4179C55.7695 1.55212 57.2177 1.50072 57.472 3.24668L62.8859 26.1562L68.8586 3.24668C68.9363 2.89652 69.2992 1.42041 70.9127 1.58103H74.1072C74.2449 1.56015 75.1034 1.45093 74.9576 2.95916C74.888 3.25631 75.51 1.24694 66.4125 30.2488C66.2262 31.1338 65.6317 32.0301 64.3584 31.9144H61.3307C59.5585 32.0992 59.3042 30.3628 59.2766 30.1878L53.9049 8.1617L48.5948 30.1653C48.5689 30.3404 48.3145 32.0767 46.5407 31.892H43.5762V31.8936ZM87.8783 32.7979C86.9257 32.7995 82.3834 32.7497 78.5863 30.8238C78.2081 30.665 77.8859 30.3984 77.6606 30.0579C77.4354 29.7173 77.3172 29.3181 77.3211 28.9108V27.1841C77.3211 25.8269 78.3255 26.0758 78.7515 26.2381C80.3779 26.8902 81.4212 27.3849 83.4186 27.78C89.3556 28.9895 91.967 27.4106 92.6069 27.0605C94.7371 25.806 94.9055 22.9357 93.4573 21.4467C91.7596 20.0349 90.9497 19.9819 84.8506 18.0737C84.0989 17.8665 77.7715 15.8876 77.7569 9.66352C77.6581 5.12756 81.8148 0.639785 89.0187 0.676728C91.0712 0.675122 96.5401 1.3401 98.0207 3.18564C98.2394 3.52134 98.3479 3.91647 98.3317 4.31642V5.9403C98.3317 6.65346 98.0693 7.01004 97.5428 7.01004C96.2938 6.87191 94.0778 5.2159 89.5792 5.28336C88.4631 5.22554 83.1173 5.42953 83.357 9.29409C83.2874 12.3395 87.6677 13.4815 88.1682 13.6132C94.0745 15.3752 96.0492 15.6676 98.3933 18.3644C101.17 21.9382 99.673 26.1224 99.0979 27.2693C96.0071 33.291 88.0143 32.8011 87.8783 32.7979ZM94.3904 49.6407C83.046 57.948 66.5777 62.3699 52.5166 62.3699C33.544 62.494 15.2108 55.5768 1.12088 42.9781C0.06306 42.032 0.996144 40.7358 2.28237 41.457C17.9123 50.322 35.6086 54.9799 53.615 54.9685C67.0616 54.897 80.3616 52.1923 92.751 47.0097C94.6593 46.2066 96.2776 48.2625 94.3904 49.6407ZM99.119 44.2936C97.6675 42.4432 89.516 43.4294 85.8663 43.8615C84.7663 43.9852 84.5801 43.0391 85.5763 42.3404C92.0674 37.8157 102.728 39.1119 103.953 40.633C105.176 42.1541 103.621 52.7455 97.5444 57.8051C96.6113 58.5873 95.7188 58.1745 96.1335 57.1465C97.5007 53.7333 100.57 46.1455 99.119 44.2936Z"/>
        </g>
    </symbol>

    <symbol id="clients-6" viewBox="0 0 77 73">
        <g>
            <path d="M67.9269 28.1614C65.532 28.1614 63.4244 29.1556 61.8757 30.7111C56.1757 26.7503 48.4958 24.2006 39.9858 23.928L44.4085 3.91556L58.4908 7.09061C58.4908 10.5543 61.3009 13.3766 64.7496 13.3766C68.2622 13.3766 71.0883 10.4741 71.0883 7.01043C71.0883 3.54674 68.2782 0.644287 64.7496 0.644287C62.2908 0.644287 60.1673 2.1356 59.1135 4.17213L43.5622 0.70843C42.7799 0.499966 42.0135 1.06121 41.8059 1.84696L36.9522 23.912C28.5059 24.2648 20.9059 26.8144 15.19 30.7752C13.6412 29.1556 11.4538 28.1614 9.05888 28.1614C0.181567 28.1614 -2.72432 40.124 5.40258 44.2131C5.11518 45.4799 4.98745 46.8269 4.98745 48.1739C4.98745 61.6118 20.0597 72.5 38.5648 72.5C57.1496 72.5 72.2219 61.6118 72.2219 48.1739C72.2219 46.8269 72.0782 45.4158 71.7269 44.149C79.6942 40.0438 76.7563 28.1614 67.9269 28.1614ZM18.2874 45.063C18.2874 41.5351 21.0975 38.6968 24.6261 38.6968C28.0748 38.6968 30.8849 41.5191 30.8849 45.063C30.8849 48.5267 28.0748 51.349 24.6261 51.349C21.1135 51.365 18.2874 48.5267 18.2874 45.063ZM52.5034 60.0563C46.6916 65.8933 30.2942 65.8933 24.4824 60.0563C23.8438 59.4951 23.8438 58.5008 24.4824 57.8594C25.0412 57.2982 26.0311 57.2982 26.59 57.8594C31.0286 62.4296 45.7496 62.5098 50.3799 57.8594C50.9387 57.2982 51.9286 57.2982 52.4874 57.8594C53.1421 58.5008 53.1421 59.4951 52.5034 60.0563ZM52.3757 51.365C48.9269 51.365 46.1169 48.5427 46.1169 45.079C46.1169 41.5512 48.9269 38.7129 52.3757 38.7129C55.8883 38.7129 58.7143 41.5351 58.7143 45.079C58.6984 48.5267 55.8883 51.365 52.3757 51.365Z"/>
        </g>
    </symbol>



    <!-- Contacts Sprite -->

    <symbol id="contacts-1" viewBox="0 0 72 72">
        <g>
            <path d="M56.429 38.9947C56.0775 38.6426 55.66 38.3632 55.2004 38.1726C54.7408 37.982 54.2482 37.8839 53.7506 37.8839C53.2531 37.8839 52.7604 37.982 52.3008 38.1726C51.8413 38.3632 51.4238 38.6426 51.0722 38.9947L45.0335 45.0334C42.2339 44.1999 37.0097 42.3057 33.6987 38.9947C30.3876 35.6836 28.4934 30.4594 27.66 27.6598L33.6987 21.6211C34.0508 21.2696 34.3301 20.8521 34.5207 20.3925C34.7113 19.9329 34.8094 19.4403 34.8094 18.9427C34.8094 18.4452 34.7113 17.9525 34.5207 17.4929C34.3301 17.0333 34.0508 16.6159 33.6987 16.2643L18.5451 1.11076C18.1936 0.758646 17.7761 0.479298 17.3165 0.288701C16.8569 0.0981045 16.3642 0 15.8667 0C15.3692 0 14.8765 0.0981045 14.4169 0.288701C13.9573 0.479298 13.5398 0.758646 13.1883 1.11076L2.91418 11.3849C1.47459 12.8245 0.663873 14.802 0.69418 16.8212C0.781313 22.2159 2.20954 40.9533 16.9767 55.7204C31.7439 70.4876 50.4813 71.912 55.8797 72.003H55.9858C57.9861 72.003 59.8765 71.215 61.3085 69.783L71.5826 59.5088C71.9347 59.1573 72.2141 58.7398 72.4047 58.2802C72.5953 57.8207 72.6934 57.328 72.6934 56.8304C72.6934 56.3329 72.5953 55.8402 72.4047 55.3807C72.2141 54.9211 71.9347 54.5036 71.5826 54.1521L56.429 38.9947ZM55.9479 64.4224C51.22 64.3428 35.0435 63.0737 22.3335 50.3599C9.58175 37.6081 8.34674 21.3749 8.27097 16.7417L15.8667 9.14594L25.6635 18.9427L20.7651 23.8411C20.3198 24.2861 19.9924 24.835 19.8125 25.4382C19.6326 26.0414 19.6058 26.68 19.7346 27.2961C19.8256 27.7318 22.0494 38.0627 28.3381 44.3515C34.6268 50.6402 44.9578 52.864 45.3934 52.9549C46.0092 53.0874 46.6484 53.0627 47.2522 52.8833C47.856 52.7039 48.4049 52.3755 48.8485 51.9283L53.7506 47.0299L63.5474 56.8267L55.9479 64.4224Z"/>
        </g>
    </symbol>

    <symbol id="contacts-2" viewBox="0 0 72 72">
        <g>
            <path d="M29 42C36.9968 42 43.5 35.721 43.5 28C43.5 20.279 36.9968 14 29 14C21.0032 14 14.5 20.279 14.5 28C14.5 35.721 21.0032 42 29 42ZM29 21C32.9984 21 36.25 24.1395 36.25 28C36.25 31.8605 32.9984 35 29 35C25.0016 35 21.75 31.8605 21.75 28C21.75 24.1395 25.0016 21 29 21Z"/>
            <path d="M26.9338 70.3403C27.5367 70.7693 28.2591 71 29 71C29.7409 71 30.4633 70.7693 31.0662 70.3403C32.1492 69.577 57.603 51.2624 57.4997 28.4002C57.4997 12.7411 44.714 0 29 0C13.286 0 0.500314 12.7411 0.500314 28.3825C0.397002 51.2624 25.8508 69.577 26.9338 70.3403ZM29 7.10006C40.7882 7.10006 50.3748 16.6532 50.3748 28.418C50.4496 44.173 34.7427 58.3199 29 62.9598C23.2609 58.3163 7.55042 44.1659 7.62524 28.4002C7.62524 16.6532 17.2118 7.10006 29 7.10006Z"/>
        </g>
    </symbol>

    <symbol id="contacts-3" viewBox="0 0 70 71">
        <g>
            <path d="M68.8484 1.16199C68.4592 0.759029 67.9674 0.480035 67.4308 0.357809C66.8943 0.235584 66.3354 0.275208 65.8198 0.472024L2.3615 24.4708C1.81422 24.6867 1.34305 25.0706 1.01056 25.5716C0.678071 26.0726 0.5 26.6669 0.5 27.2756C0.5 27.8844 0.678071 28.4787 1.01056 28.9797C1.34305 29.4807 1.81422 29.8646 2.3615 30.0805L30.0524 41.5999L41.1287 70.3984C41.3368 70.9426 41.6935 71.4115 42.1549 71.7473C42.6162 72.0832 43.1619 72.2712 43.7248 72.2883C44.3077 72.2759 44.8733 72.08 45.347 71.7266C45.8207 71.3732 46.1804 70.8787 46.3785 70.3084L69.4542 4.31183C69.6507 3.78108 69.6981 3.20317 69.5909 2.64548C69.4836 2.08779 69.2261 1.5733 68.8484 1.16199ZM43.7248 60.8889L35.6771 39.89L49.4937 25.5207L45.4266 21.291L31.4946 35.7802L11.4187 27.2906L61.9834 8.30162L43.7248 60.8889Z"/>
        </g>
    </symbol>



    <!-- Footer -->
    <symbol id="footer-1" viewBox="0 0 23 24">
        <g>
            <path d="M17.8478 12.9767C17.7365 12.8652 17.6043 12.7767 17.4587 12.7163C17.3131 12.656 17.157 12.6249 16.9995 12.6249C16.8419 12.6249 16.6858 12.656 16.5402 12.7163C16.3946 12.7767 16.2624 12.8652 16.1511 12.9767L14.2383 14.8895C13.3515 14.6255 11.6967 14.0255 10.6479 12.9767C9.59912 11.9279 8.99913 10.2731 8.73513 9.38635L10.6479 7.47357C10.7594 7.36223 10.8479 7.22998 10.9083 7.08441C10.9687 6.93883 10.9998 6.78278 10.9998 6.62518C10.9998 6.46758 10.9687 6.31153 10.9083 6.16595C10.8479 6.02038 10.7594 5.88813 10.6479 5.77679L5.84796 0.976838C5.73662 0.865304 5.60437 0.776819 5.4588 0.716447C5.31322 0.656075 5.15717 0.625 4.99957 0.625C4.84197 0.625 4.68592 0.656075 4.54034 0.716447C4.39477 0.776819 4.26252 0.865304 4.15118 0.976838L0.896812 4.23121C0.440817 4.6872 0.184019 5.31359 0.193619 5.95319C0.221219 7.66197 0.673615 13.5971 5.35117 18.2747C10.0287 22.9522 15.9639 23.4034 17.6738 23.4322H17.7074C18.341 23.4322 18.9398 23.1826 19.3934 22.729L22.6478 19.4747C22.7593 19.3633 22.8478 19.2311 22.9082 19.0855C22.9686 18.9399 22.9996 18.7839 22.9996 18.6263C22.9996 18.4687 22.9686 18.3126 22.9082 18.167C22.8478 18.0215 22.7593 17.8892 22.6478 17.7779L17.8478 12.9767ZM17.6954 21.031C16.1979 21.0058 11.0739 20.6038 7.04795 16.5767C3.00879 12.5375 2.61759 7.39557 2.5936 5.92799L4.99957 3.52201L8.10274 6.62518L6.55116 8.17677C6.41011 8.3177 6.30641 8.49157 6.24942 8.68264C6.19243 8.87372 6.18396 9.07598 6.22476 9.27115C6.25356 9.40915 6.95795 12.6815 8.94993 14.6735C10.9419 16.6655 14.2143 17.3699 14.3523 17.3987C14.5473 17.4406 14.7498 17.4328 14.941 17.376C15.1323 17.3192 15.3062 17.2151 15.4467 17.0735L16.9995 15.5219L20.1026 18.6251L17.6954 21.031Z"/>
        </g>
    </symbol>

    <symbol id="footer-2" viewBox="0 0 24 31">
        <g>
            <path d="M11.9999 18.2499C15.3089 18.2499 17.9999 15.5589 17.9999 12.2499C17.9999 8.94097 15.3089 6.25 11.9999 6.25C8.69097 6.25 6 8.94097 6 12.2499C6 15.5589 8.69097 18.2499 11.9999 18.2499ZM11.9999 9.24997C13.6544 9.24997 14.9999 10.5955 14.9999 12.2499C14.9999 13.9044 13.6544 15.2499 11.9999 15.2499C10.3455 15.2499 8.99997 13.9044 8.99997 12.2499C8.99997 10.5955 10.3455 9.24997 11.9999 9.24997Z"/>
            <path d="M11.13 29.9707C11.3839 30.152 11.688 30.2494 12 30.2494C12.312 30.2494 12.6161 30.152 12.87 29.9707C13.326 29.6482 24.0434 21.9098 23.9999 12.2499C23.9999 5.63344 18.6164 0.25 12 0.25C5.38357 0.25 0.000132055 5.63344 0.000132055 12.2424C-0.0433675 21.9098 10.674 29.6482 11.13 29.9707ZM12 3.24997C16.9634 3.24997 20.9999 7.28642 20.9999 12.2574C21.0314 18.9143 14.418 24.8917 12 26.8522C9.58353 24.8902 2.9686 18.9113 3.0001 12.2499C3.0001 7.28642 7.03655 3.24997 12 3.24997Z"/>
        </g>
    </symbol>

    <symbol id="footer-3" viewBox="0 0 24 26">
        <g>
            <path d="M23.709 1.21621C23.5741 1.07651 23.4036 0.979791 23.2176 0.937417C23.0315 0.895044 22.8378 0.908781 22.659 0.977014L0.659024 9.29701C0.469292 9.37186 0.305944 9.50496 0.190675 9.67865C0.0754064 9.85233 0.0136719 10.0584 0.0136719 10.2694C0.0136719 10.4805 0.0754064 10.6865 0.190675 10.8602C0.305944 11.0339 0.469292 11.167 0.659024 11.2418L10.259 15.2354L14.099 25.2194C14.1712 25.4081 14.2948 25.5706 14.4548 25.6871C14.6147 25.8035 14.8039 25.8687 14.999 25.8746C15.2011 25.8703 15.3972 25.8024 15.5614 25.6799C15.7257 25.5573 15.8503 25.3859 15.919 25.1882L23.919 2.30821C23.9872 2.12421 24.0036 1.92386 23.9664 1.73052C23.9292 1.53718 23.84 1.35881 23.709 1.21621ZM14.999 21.9226L12.209 14.6426L16.999 9.66101L15.589 8.19461L10.759 13.2178L3.79902 10.2746L21.329 3.69141L14.999 21.9226Z"/>
        </g>
    </symbol>



    <!-- Socials -->
    <symbol id="facebook" viewBox="0 0 24 24">
        <g>
            <path d="M23.04 0H0.96C0.429 0 0 0.429 0 0.96V23.04C0 23.571 0.429 24 0.96 24H23.04C23.571 24 24 23.571 24 23.04V0.96C24 0.429 23.571 0 23.04 0ZM20.268 7.005H18.351C16.848 7.005 16.557 7.719 16.557 8.769V11.082H20.145L19.677 14.703H16.557V24H12.816V14.706H9.687V11.082H12.816V8.412C12.816 5.313 14.709 3.624 17.475 3.624C18.801 3.624 19.938 3.723 20.271 3.768V7.005H20.268Z"/>
        </g>
    </symbol>

    <symbol id="instagram" viewBox="0 0 24 24">
        <g>
            <path d="M12.0026 5.84744C8.59756 5.84744 5.84956 8.59544 5.84956 12.0004C5.84956 15.4054 8.59756 18.1534 12.0026 18.1534C15.4076 18.1534 18.1556 15.4054 18.1556 12.0004C18.1556 8.59544 15.4076 5.84744 12.0026 5.84744ZM12.0026 15.9994C9.80056 15.9994 8.00356 14.2024 8.00356 12.0004C8.00356 9.79844 9.80056 8.00144 12.0026 8.00144C14.2046 8.00144 16.0016 9.79844 16.0016 12.0004C16.0016 14.2024 14.2046 15.9994 12.0026 15.9994ZM18.4076 4.16144C17.6126 4.16144 16.9706 4.80344 16.9706 5.59844C16.9706 6.39344 17.6126 7.03544 18.4076 7.03544C19.2026 7.03544 19.8446 6.39644 19.8446 5.59844C19.8448 5.40966 19.8078 5.22269 19.7357 5.04824C19.6635 4.87379 19.5577 4.71528 19.4242 4.5818C19.2907 4.44831 19.1322 4.34247 18.9578 4.27034C18.7833 4.19821 18.5963 4.1612 18.4076 4.16144ZM23.9966 12.0004C23.9966 10.3444 24.0116 8.70344 23.9186 7.05044C23.8256 5.13044 23.3876 3.42644 21.9836 2.02244C20.5766 0.615437 18.8756 0.180437 16.9556 0.0874372C15.2996 -0.00556279 13.6586 0.00943725 12.0056 0.00943725C10.3496 0.00943725 8.70856 -0.00556279 7.05556 0.0874372C5.13556 0.180437 3.43156 0.618437 2.02756 2.02244C0.620564 3.42944 0.185564 5.13044 0.0925642 7.05044C-0.000435829 8.70644 0.0145642 10.3474 0.0145642 12.0004C0.0145642 13.6534 -0.000435829 15.2974 0.0925642 16.9504C0.185564 18.8704 0.623564 20.5744 2.02756 21.9784C3.43456 23.3854 5.13556 23.8204 7.05556 23.9134C8.71156 24.0064 10.3526 23.9914 12.0056 23.9914C13.6616 23.9914 15.3026 24.0064 16.9556 23.9134C18.8756 23.8204 20.5796 23.3824 21.9836 21.9784C23.3906 20.5714 23.8256 18.8704 23.9186 16.9504C24.0146 15.2974 23.9966 13.6564 23.9966 12.0004ZM21.3566 19.0744C21.1376 19.6204 20.8736 20.0284 20.4506 20.4484C20.0276 20.8714 19.6226 21.1354 19.0766 21.3544C17.4986 21.9814 13.7516 21.8404 12.0026 21.8404C10.2536 21.8404 6.50356 21.9814 4.92556 21.3574C4.37956 21.1384 3.97156 20.8744 3.55156 20.4514C3.12856 20.0284 2.86456 19.6234 2.64556 19.0774C2.02156 17.4964 2.16256 13.7494 2.16256 12.0004C2.16256 10.2514 2.02156 6.50144 2.64556 4.92344C2.86456 4.37744 3.12856 3.96944 3.55156 3.54944C3.97456 3.12944 4.37956 2.86244 4.92556 2.64344C6.50356 2.01944 10.2536 2.16044 12.0026 2.16044C13.7516 2.16044 17.5016 2.01944 19.0796 2.64344C19.6256 2.86244 20.0336 3.12644 20.4536 3.54944C20.8766 3.97244 21.1406 4.37744 21.3596 4.92344C21.9836 6.50144 21.8426 10.2514 21.8426 12.0004C21.8426 13.7494 21.9836 17.4964 21.3566 19.0744Z"/>
        </g>
    </symbol>

    <symbol id="twitter" viewBox="0 0 24 20">
        <g>
            <path d="M24.0014 2.46548C23.1198 2.85141 22.1603 3.12917 21.1721 3.23735C22.1981 2.61879 22.9665 1.64156 23.333 0.489007C22.3702 1.07022 21.3155 1.47778 20.2156 1.6936C19.7559 1.19488 19.1999 0.797581 18.5823 0.526453C17.9646 0.255325 17.2986 0.116179 16.6257 0.117688C13.903 0.117688 11.7133 2.3573 11.7133 5.10564C11.7133 5.49158 11.7594 5.87752 11.8343 6.24884C7.75747 6.03248 4.12146 4.05601 1.70417 1.0299C1.26372 1.79335 1.0329 2.66261 1.03575 3.54727C1.03575 5.27814 1.90297 6.80435 3.22542 7.70195C2.44608 7.6708 1.68499 7.45342 1.00405 7.06749V7.12889C1.00405 9.5527 2.69241 11.5613 4.94259 12.0233C4.52009 12.1347 4.08547 12.1916 3.64895 12.1929C3.32914 12.1929 3.02662 12.1607 2.72122 12.1168C3.34355 14.0933 5.15579 15.5289 7.31378 15.5757C5.62542 16.9177 3.51066 17.7071 1.21438 17.7071C0.802374 17.7071 0.422061 17.6925 0.0273438 17.6457C2.20549 19.0637 4.78989 19.8824 7.57308 19.8824C16.6084 19.8824 21.5524 12.2864 21.5524 5.69332C21.5524 5.47696 21.5524 5.2606 21.538 5.04424C22.4946 4.33377 23.333 3.45371 24.0014 2.46548Z"/>
        </g>
    </symbol>

    <symbol id="youtube" viewBox="0 0 24 18">
        <g>
            <path d="M23.4699 2.93166C23.3335 2.3987 23.0663 1.91276 22.6951 1.52249C22.324 1.13221 21.8619 0.851291 21.355 0.707834C19.4884 0.176636 11.9879 0.176636 11.9879 0.176636C11.9879 0.176636 4.48729 0.176636 2.62071 0.707834C2.11385 0.851291 1.65172 1.13221 1.28057 1.52249C0.90941 1.91276 0.642248 2.3987 0.50582 2.93166C0.157288 4.93335 -0.0118455 6.96501 0.000644257 8.99993C-0.0118455 11.0348 0.157288 13.0665 0.50582 15.0682C0.642248 15.6012 0.90941 16.0871 1.28057 16.4774C1.65172 16.8676 2.11385 17.1486 2.62071 17.292C4.48729 17.8232 11.9879 17.8232 11.9879 17.8232C11.9879 17.8232 19.4884 17.8232 21.355 17.292C21.8619 17.1486 22.324 16.8676 22.6951 16.4774C23.0663 16.0871 23.3335 15.6012 23.4699 15.0682C23.8184 13.0665 23.9876 11.0348 23.9751 8.99993C23.9876 6.96501 23.8184 4.93335 23.4699 2.93166ZM9.59041 12.7813V5.21852L15.8152 8.99993L9.59041 12.7813Z"/>
        </g>
    </symbol>

</svg>